<svg xmlns="http://www.w3.org/2000/svg" xmlns:xlink="http://www.w3.org/1999/xlink" viewBox="0 0 516 516"><defs><style>.cls-1{fill:none;}.cls-2{isolation:isolate;}.cls-3{fill:url(#linear-gradient);}.cls-4{fill:url(#linear-gradient-2);}.cls-5,.cls-9{fill:#a54d5e;}.cls-5{opacity:0.15;}.cls-46,.cls-5,.cls-9{mix-blend-mode:multiply;}.cls-6{fill:#f0a3b6;}.cls-7{fill:url(#linear-gradient-3);}.cls-8{fill:url(#linear-gradient-4);}.cls-9{opacity:0.05;}.cls-10,.cls-43,.cls-45{fill:#fff;}.cls-10{opacity:0.2;}.cls-11{fill:#fce6da;}.cls-12{fill:url(#linear-gradient-5);}.cls-13{fill:#ffe8f0;}.cls-14{fill:url(#linear-gradient-6);}.cls-15{fill:url(#linear-gradient-7);}.cls-16{fill:url(#linear-gradient-8);}.cls-17{fill:url(#linear-gradient-9);}.cls-18{fill:#ec1c25;}.cls-19{fill:#ec343b;}.cls-20{fill:url(#linear-gradient-10);}.cls-21{fill:#d6001d;}.cls-22,.cls-41,.cls-43,.cls-48{opacity:0.3;}.cls-22{fill:url(#New_Gradient_Swatch_3);}.cls-23{fill:url(#New_Gradient_Swatch_3-2);}.cls-24,.cls-25{fill:#ff8c91;}.cls-25,.cls-39{opacity:0.7;}.cls-26{fill:url(#linear-gradient-11);}.cls-27{fill:#ff554d;}.cls-28{fill:#ff8c78;}.cls-29{fill:#ffc2a8;}.cls-30{fill:#f85344;}.cls-31{fill:url(#linear-gradient-12);}.cls-32{fill:url(#linear-gradient-13);}.cls-33{fill:#87a0bd;}.cls-33,.cls-42,.cls-51{opacity:0.4;}.cls-34{fill:#2e3d54;}.cls-35,.cls-46{fill:#a9bfd9;}.cls-36{clip-path:url(#clip-path);}.cls-37{fill:#352b3a;}.cls-38{fill:#473d53;}.cls-39,.cls-40,.cls-42{fill:#6a6387;}.cls-40,.cls-50{opacity:0.5;}.cls-41{fill:#bbf5e4;}.cls-41,.cls-43{mix-blend-mode:overlay;}.cls-44{fill:#97abc2;}.cls-46{opacity:0.35;}.cls-47{fill:url(#linear-gradient-14);}.cls-48{fill:#6c2508;}.cls-49{fill:#e1171b;opacity:0.8;}.cls-50{fill:#f74346;}.cls-51{fill:#730010;}.cls-52{fill:url(#linear-gradient-15);}.cls-53{fill:#d93e00;}.cls-54{fill:#f79421;}.cls-55{fill:#eb6000;}.cls-56{fill:url(#linear-gradient-16);}</style><linearGradient id="linear-gradient" x1="243.72" y1="451.44" x2="243.72" y2="107.4" gradientUnits="userSpaceOnUse"><stop offset="0" stop-color="#f2e2dc"/><stop offset="0.51" stop-color="#ebcfc4"/><stop offset="0.66" stop-color="#e6c3ba"/><stop offset="0.91" stop-color="#daa3a1"/><stop offset="1" stop-color="#d59797"/></linearGradient><linearGradient id="linear-gradient-2" x1="200.63" y1="319.99" x2="374.1" y2="319.99" gradientUnits="userSpaceOnUse"><stop offset="0" stop-color="#fad5dd"/><stop offset="1" stop-color="#f0b4c2"/></linearGradient><linearGradient id="linear-gradient-3" x1="238.05" y1="365.46" x2="379.7" y2="365.46" gradientUnits="userSpaceOnUse"><stop offset="0" stop-color="#f4eddf"/><stop offset="1" stop-color="#e0d1bc"/></linearGradient><linearGradient id="linear-gradient-4" x1="233.37" y1="410.29" x2="371.65" y2="410.29" gradientUnits="userSpaceOnUse"><stop offset="0" stop-color="#a7b5cc"/><stop offset="1" stop-color="#8d91ba"/></linearGradient><linearGradient id="linear-gradient-5" x1="247.49" y1="155.43" x2="319.2" y2="231.92" gradientUnits="userSpaceOnUse"><stop offset="0" stop-color="#e3b5ad"/><stop offset="1" stop-color="#e3c7b8"/></linearGradient><linearGradient id="linear-gradient-6" x1="499.54" y1="1765.02" x2="524.43" y2="1796.56" gradientTransform="translate(1597.24 -1320.6) rotate(59.54)" gradientUnits="userSpaceOnUse"><stop offset="0" stop-color="#68b728"/><stop offset="0.38" stop-color="#5d991d"/><stop offset="0.76" stop-color="#558214"/><stop offset="1" stop-color="#527a11"/></linearGradient><linearGradient id="linear-gradient-7" x1="505.4" y1="1756.99" x2="531.42" y2="1789.98" xlink:href="#linear-gradient-6"/><linearGradient id="linear-gradient-8" x1="521.75" y1="1783.14" x2="551.44" y2="1818.32" xlink:href="#linear-gradient-6"/><linearGradient id="linear-gradient-9" x1="508.49" y1="1798.51" x2="516.8" y2="1808.36" xlink:href="#linear-gradient-6"/><linearGradient id="linear-gradient-10" x1="568.85" y1="1852.19" x2="584.79" y2="1889.57" gradientTransform="translate(1597.24 -1320.6) rotate(59.54)" gradientUnits="userSpaceOnUse"><stop offset="0" stop-color="#d6001d"/><stop offset="0.6" stop-color="#c0001a"/><stop offset="1" stop-color="#b80019"/></linearGradient><linearGradient id="New_Gradient_Swatch_3" x1="255.07" y1="114.82" x2="255.85" y2="115.65" gradientUnits="userSpaceOnUse"><stop offset="0" stop-color="#b80019"/><stop offset="0.22" stop-color="#ab0017"/><stop offset="0.7" stop-color="#940014"/><stop offset="1" stop-color="#8c0013"/></linearGradient><linearGradient id="New_Gradient_Swatch_3-2" x1="302" y1="114.75" x2="339.21" y2="173.58" xlink:href="#New_Gradient_Swatch_3"/><linearGradient id="linear-gradient-11" x1="88.07" y1="429.99" x2="209.08" y2="429.99" gradientTransform="translate(103.26 -320.02) rotate(13.1)" gradientUnits="userSpaceOnUse"><stop offset="0" stop-color="#e1171b"/><stop offset="1" stop-color="#b82423"/></linearGradient><linearGradient id="linear-gradient-12" x1="129.14" y1="408.07" x2="88.2" y2="362.8" gradientTransform="translate(103.26 -320.02) rotate(13.1)" gradientUnits="userSpaceOnUse"><stop offset="0" stop-color="#598f02"/><stop offset="1" stop-color="#74ba03"/></linearGradient><linearGradient id="linear-gradient-13" x1="317.83" y1="107.57" x2="334.81" y2="186.23" gradientUnits="userSpaceOnUse"><stop offset="0" stop-color="#616b8e"/><stop offset="0.65" stop-color="#404d68"/><stop offset="1" stop-color="#2e3d54"/></linearGradient><clipPath id="clip-path"><path class="cls-1" d="M70.82,151.31c-.57-31.07,86.77-63.44,161.25-65.95,87-3,184.63,33.91,184,66.58-.67,31.9-95,60.53-172.27,60.6C165.51,212.6,71.4,183.37,70.82,151.31Z"/></clipPath><linearGradient id="linear-gradient-14" x1="376.71" y1="437.4" x2="402.98" y2="507.69" gradientTransform="matrix(1, 0, 0, 1, 0, 0)" xlink:href="#linear-gradient-11"/><linearGradient id="linear-gradient-15" x1="652.58" y1="1234.65" x2="628.54" y2="1250.84" gradientTransform="translate(867.21 -914.29) rotate(46.19)" xlink:href="#linear-gradient-12"/><linearGradient id="linear-gradient-16" x1="647.67" y1="1236.01" x2="651.41" y2="1199.03" gradientTransform="translate(867.21 -914.29) rotate(46.19)" xlink:href="#linear-gradient-12"/></defs><title>Artboard 9</title><g class="cls-2"><g id="Layer_1" data-name="Layer 1"><path class="cls-3" d="M122,460.64c6.56,10.87,54,29.79,128.08,29,64.85-.71,115.07-20.16,123.26-30.24s64.31-147.64,64.44-303.94c.05-54.16-150,36.94-195.77,40.09-40,2.75-189.7-93.84-191.85-40.46C43.24,326.74,117,452.42,122,460.64Z"/><path class="cls-4" d="M66,170.36s-5.19,69.43,21.42,162.87,52.14,109.63,57.34,114.82,38,27.28,98.39,25.34,108.36-16.88,120-26,58.4-161.57,55.15-281Z"/><path id="_Path_" data-name="&lt;Path&gt;" class="cls-5" d="M88.28,227a4.33,4.33,0,1,0,4.86-3.73A4.37,4.37,0,0,0,88.28,227Z"/><path id="_Path_2" data-name="&lt;Path&gt;" class="cls-5" d="M79.26,247.42C78.26,255,90,256.54,91,249S80.27,239.86,79.26,247.42Z"/><path class="cls-6" d="M68,180.7c-.57-32.4,87.5-66.14,162.58-68.76,87.74-3.07,186.17,35.35,185.48,69.41-.67,33.26-95.84,63.1-173.7,63.17C163.44,244.59,68.55,214.11,68,180.7Z"/><path class="cls-7" d="M412.37,261.82c-42.61,19.34-120.87,35.66-164.78,34h-1.65c-61.31-.19-123.21-10.86-174.85-38.43a586.2,586.2,0,0,0,16.28,75.84c26.6,93.44,45.81,113.43,51,118.62s44.38,23.48,104.73,21.54,108.36-16.88,120-26c8.69-6.76,36.74-92.82,49.23-185.6Z"/><path class="cls-8" d="M240.35,377.36c-51.28-.15-104.39-10.58-147.66-26.07,23.83,78,40.84,95.72,45.68,100.56,5.19,5.19,44.38,23.48,104.73,21.54s108.36-16.88,120-26C369,442.85,383.8,401.86,396.61,347,358.85,366.08,291.14,378.07,240.35,377.36Z"/><path id="_Path_3" data-name="&lt;Path&gt;" class="cls-5" d="M137.69,413.58a3.79,3.79,0,0,0-7-2.9,4.11,4.11,0,0,0,0,2.87c-.43,3.12,4,4.95,5.85,2.29.35-.51.65-1,1-1.58C137.67,414,138.18,412.29,137.69,413.58Z"/><path id="_Path_4" data-name="&lt;Path&gt;" class="cls-5" d="M151.71,386.09a3.79,3.79,0,0,0-7-2.9,4.11,4.11,0,0,0,0,2.87c-.43,3.12,4,4.95,5.85,2.29.35-.51.65-1,1-1.58C151.69,386.47,152.2,384.8,151.71,386.09Z"/><path id="_Path_5" data-name="&lt;Path&gt;" class="cls-5" d="M117.83,376.2c-8,3.32-2.84,15.69,5.14,12.38S125.81,372.89,117.83,376.2Z"/><path class="cls-9" d="M418.29,166.47l-53.85.59C353.68,179.64,345.9,194,334.09,209c0,0-1.33,163.76-18.49,255.41,24-5.37,41.18-12,47.54-17C374.82,438.35,421.54,285.86,418.29,166.47Z"/><path class="cls-10" d="M79.58,179.66S88.48,357.43,156.73,461c17.93,6.58,47.82,13.59,86.37,12.35a408.64,408.64,0,0,0,45-4c12.2-93.23,16.3-255.92,16.3-255.92S154.85,239.36,79.58,179.66Z"/><path class="cls-11" d="M50.14,155.07c-.88-40.16,108-84.41,204.07-82.15,84.32,2,183.43,40.42,183.19,78.89-.23,38.91-102,75.42-186.45,77.58C159.65,231.73,51,194.85,50.14,155.07Z"/><path class="cls-12" d="M70.82,151.31c-.57-31.07,86.77-63.44,161.25-65.95,87-3,184.63,33.91,184,66.58-.67,31.9-95,60.53-172.27,60.6C165.51,212.6,71.4,183.37,70.82,151.31Z"/><path class="cls-13" d="M232.07,109.63C167.62,111.81,93.55,136.34,75.14,163c19.33,27.12,100.06,49.55,168.61,49.5,67.67-.06,148.53-22.06,167.93-49C391.91,134.77,308,107.06,232.07,109.63Z"/><path class="cls-14" d="M335.75,3.22c-2.29-.4-4.57-.8-6.85-1.22-3,12.52-10.45,35.83-26.51,49.84,0,0-4.6,2.55,7.78,8.21C310.17,60.05,330.13,38.09,335.75,3.22Z"/><path class="cls-15" d="M311.31,44.21s16.74-3.66,28.32-18.13c0,0,.07,24.52-12.28,31.22C310.3,66.54,311.31,44.21,311.31,44.21Z"/><path class="cls-16" d="M292.8,45.7S271,28.71,279.29,9c0,0,9.29,15.78,15,20.35,0,0-3.46-15.84,19.94-22.92,0,0-5,11.79,1.46,22,7.19,11.23-1.44,16.13-1.44,16.13s18.43,11.08,36.4-19.78c0,0,6.91,18.26-5.34,28.07,0,0,12.86.61,21.7,13.87,0,0-27.94-.7-36.61,11.45C318.92,94.14,292.8,45.7,292.8,45.7Z"/><path class="cls-17" d="M313.75,39.55s-3.71-4.67-9.09-3.26c0,0-10.1-5.88-8.88-16.4a16.22,16.22,0,0,0-1.51,9.45s10.27,7,8.59,13.11Z"/><path class="cls-18" d="M278.47,151h0l.1.07Z"/><path class="cls-19" d="M324,149.28a14.08,14.08,0,0,0,12-4.6,16.61,16.61,0,0,0,3.83-13.27,18.62,18.62,0,0,0,12.63-9.47,17.81,17.81,0,0,0,.27-15.55c4-2.69,6.86-6.77,6.45-12.22a11.46,11.46,0,0,0-6.22-9.59,12.76,12.76,0,0,0-.47-13.51,14.37,14.37,0,0,0-12-6.75c1.62-3.82,1.81-8-1-11.87a11.43,11.43,0,0,0-10.27-4.71,14.51,14.51,0,0,0-6.37,2.13,14.2,14.2,0,0,0-10.32-11.33,13.79,13.79,0,0,0-11.95,2.35,13.23,13.23,0,0,0-11.46-6.27,11,11,0,0,0-9,5.21c-4.77-3.5-11-4.94-16.23-1.7-4.84,3-5.6,7.69-4.51,12.46-4.54-.7-9.25.13-12.38,3.46-3.86,4.11-2.56,9.2.31,13.56-4.57,1.34-8.63,4-9.74,8.61A9.84,9.84,0,0,0,239.16,84a14,14,0,0,0-6.68,10.5A15.25,15.25,0,0,0,236,106.05c-3.42,3.64-5.19,8.38-3.29,14.06a15.59,15.59,0,0,0,7.7,9.08,13,13,0,0,0-.6,1.43,12.9,12.9,0,0,0,2.63,13c3.81,4.22,8.62,5.22,13.5,4.62a13.78,13.78,0,0,0,8.7,10.9,14.33,14.33,0,0,0,10.64.06,14.81,14.81,0,0,0,12.35,8.54c8.1.68,13-4.57,15.11-11.15.1.17.19.36.3.53,2.55,4,6,8.81,11.34,8.77C322.67,165.8,324.35,157,324,149.28Z"/><path class="cls-20" d="M324,149.28a14.08,14.08,0,0,0,12-4.6,16.61,16.61,0,0,0,3.83-13.27,18.62,18.62,0,0,0,12.63-9.47,17.81,17.81,0,0,0,.27-15.55c4-2.69,6.86-6.77,6.45-12.22a11.46,11.46,0,0,0-6.22-9.59,12.76,12.76,0,0,0-.47-13.51,14.37,14.37,0,0,0-12-6.75c1.62-3.82,1.81-8-1-11.87a11.43,11.43,0,0,0-10.27-4.71,14.51,14.51,0,0,0-6.37,2.13c0-.1-.06-.2-.08-.31,0,.17-.06.35-.1.51a11.8,11.8,0,0,1-5.26,7l-.32.19a11.84,11.84,0,0,1-8.64,1.2,5.1,5.1,0,0,1-.55-.19c0,6.53-6.52,11.61-12.75,11.26a7.77,7.77,0,0,1,1.34.63A6.33,6.33,0,1,1,286,75.28a12.4,12.4,0,0,1-4.17.18c2.61,9.4-11.59,16.74-17.26,7.11-.18-.31-.28-.62-.43-.93C259.33,90.2,245.44,93.8,239,82.75a15,15,0,0,1-1.52-3.49A11.27,11.27,0,0,0,239.16,84a14,14,0,0,0-6.68,10.5A15.25,15.25,0,0,0,236,106.05c-3.42,3.64-5.19,8.38-3.29,14.06a15.59,15.59,0,0,0,7.7,9.08,13,13,0,0,0-.6,1.43,12.9,12.9,0,0,0,2.63,13c3.81,4.22,8.62,5.22,13.5,4.62a13.78,13.78,0,0,0,8.7,10.9,14.33,14.33,0,0,0,10.64.06,14.81,14.81,0,0,0,12.35,8.54c8.1.68,13-4.57,15.11-11.15.1.17.19.36.3.53,2.55,4,6,8.81,11.34,8.77C322.67,165.8,324.35,157,324,149.28ZM330.15,83c.46.27,1,.49,1.41.76a5.65,5.65,0,0,1,2.13,7.54,5.59,5.59,0,0,1-7.54,2.13c-.46-.27-.95-.49-1.41-.77a5.64,5.64,0,0,1-2.12-7.54A5.57,5.57,0,0,1,330.15,83Zm-18.63,6.81c.46.27,1,.49,1.41.77a5.66,5.66,0,0,1,2.13,7.54,5.59,5.59,0,0,1-7.54,2.12c-.46-.27-.95-.49-1.41-.76A5.66,5.66,0,0,1,304,91.89,5.59,5.59,0,0,1,311.52,89.76Zm10.31-32.9A6.26,6.26,0,0,1,325.56,54a6.56,6.56,0,0,1,4.56.57l.23.11c.78.3,1.55.6,2.31.95,3.1,1.42,3.73,5.54,2.34,8.29a6.18,6.18,0,0,1-3.73,2.91,6.55,6.55,0,0,1-4.56-.56l-.23-.11c-.77-.3-1.55-.61-2.31-1C321.07,63.73,320.44,59.62,321.83,56.86Zm-31,29.69A25.92,25.92,0,0,1,293.31,88a6.25,6.25,0,0,1,2.34,8.3,6.13,6.13,0,0,1-8.29,2.34c-.8-.51-1.6-1-2.44-1.44-3.05-1.53-3.78-5.45-2.35-8.29C284.1,85.86,288,85.11,290.87,86.55ZM243.81,103.8l-.55-.3,0,0-.51-.16a6.22,6.22,0,0,1-4.36-7.42,6.14,6.14,0,0,1,7.42-4.37,26.14,26.14,0,0,1,4,1.64c3.07,1.48,3.75,5.49,2.34,8.29C250.56,104.52,246.67,105.19,243.81,103.8Zm24.38,1.3-.1,0c-.37,0-.93-.18-.32-.15l-.14-.06a6.71,6.71,0,0,1-3.48-1.6,6.1,6.1,0,0,1,4.22-10.47,16.49,16.49,0,0,1,5.77,1.7c3.07,1.48,3.75,5.49,2.34,8.29C274.94,105.82,271.06,106.48,268.19,105.1Zm18.66,13.24c-.65-.06-1.3-.14-1.94-.26-3.35-.59-5-4.41-4.37-7.42a6.17,6.17,0,0,1,2.81-3.72,6.47,6.47,0,0,1,4.62-.65l-.57-.1c.65,0,1.29.14,1.94.25,3.35.59,5,4.41,4.36,7.43a6.18,6.18,0,0,1-2.8,3.72,6.52,6.52,0,0,1-4.62.65Zm14.94-11.76c2.41-1.57,5.36-.61,7.11,1.38-.12-.15-.07-.12.2.16s.34.31-.1,0l0,0a5.64,5.64,0,0,1,1.87,7.33c-1.26,2.49-5.16,3.78-7.54,2.13a12.57,12.57,0,0,1-3.52-3.41C298.06,111.61,299.43,108.12,301.79,106.58Z"/><path class="cls-21" d="M287.4,106.19c-.41,0-1-.18,0,0Z"/><path class="cls-21" d="M286.85,118.34c.41,0,1,.17,0,0Z"/><path class="cls-22" d="M256.34,114.62c-.3,0-1,0-1.86.06,0,.57.1,1.14.15,1.71a5.74,5.74,0,0,1,2.13-1.82Z"/><path class="cls-23" d="M359.16,94.17a11.46,11.46,0,0,0-6.22-9.59,12.76,12.76,0,0,0-.47-13.51,14.34,14.34,0,0,0-11.62-6.72,13.4,13.4,0,0,1-.58,3.08,12.35,12.35,0,0,1-7.52,9,12.2,12.2,0,0,1,6.72,5.27,12,12,0,0,1,1.26,9,12.26,12.26,0,0,1-5.45,7.22l-.48.28a12.26,12.26,0,0,1-8.95,1.25,10.32,10.32,0,0,1-4.74-2.58,11.75,11.75,0,0,1-6.24,10c.17.07.33.16.5.24a12.5,12.5,0,0,1-2.61.87c2.69,6.4-.49,15.51-9.53,15.51a9.83,9.83,0,0,1-8.72-4.57,10.17,10.17,0,0,1-6.86,2.41,10,10,0,0,1-10.21-8.41,8.65,8.65,0,0,1-1.16,1.34,11.15,11.15,0,0,1-7.66,3.18h-.43c-.27,0-.54,0-.8,0a6.65,6.65,0,0,1,.63,2.54A6.13,6.13,0,0,1,262,126h-1.12a6.41,6.41,0,0,1-5.37-1.41c.09.74.16,1.49.27,2.22.45,3.27,1,6.54,1.6,9.81a10.87,10.87,0,0,1-7.38-5.47,10.71,10.71,0,0,1-.13-11.42A10.83,10.83,0,0,1,237,114.52a11.06,11.06,0,0,1-1.51-7.92,13.23,13.23,0,0,0-2.82,13.51,15.59,15.59,0,0,0,7.7,9.08,13,13,0,0,0-.6,1.43,12.9,12.9,0,0,0,2.63,13c3.81,4.22,8.62,5.22,13.5,4.62a13.7,13.7,0,0,0,6.63,9.86h0c.24.15.5.29.76.43a13.86,13.86,0,0,0,1.29.61h0a14.48,14.48,0,0,0,6.85,1,14.29,14.29,0,0,0,3.79-.92,14.87,14.87,0,0,0,9.77,8.09,17.12,17.12,0,0,0,2.58.45,14.1,14.1,0,0,0,6.67-1c4.22-1.77,7-5.67,8.44-10.19.1.17.19.36.3.53l.49.77c.45.7.94,1.41,1.46,2.11l.28.36a17.78,17.78,0,0,0,3.54,3.6c.2.15.41.29.62.43a10.2,10.2,0,0,0,1,.57,9.34,9.34,0,0,0,1.13.48,8.52,8.52,0,0,0,2.8.45,8.34,8.34,0,0,0,6-2.34,9.27,9.27,0,0,0,1-1.27,13.81,13.81,0,0,0,2-4.68,20.5,20.5,0,0,0,.42-2.26,31.87,31.87,0,0,0,.27-4.59v0c0-.48,0-.95,0-1.42a13.18,13.18,0,0,0,1.78.06l.3,0a13.2,13.2,0,0,0,1.53-.15l.18,0a15.93,15.93,0,0,0,1.66-.38h0a13.56,13.56,0,0,0,6.48-4.07,16.61,16.61,0,0,0,3.83-13.27,18.62,18.62,0,0,0,12.63-9.47,17.81,17.81,0,0,0,.27-15.55C356.74,103.7,359.57,99.62,359.16,94.17Zm-16.44-22c1.87-1.74,5.17-1.08,6.73.76,2.26,2.66.76,8.9-3.35,8.52-1.32-.13-2.61-1.64-3.41-3.44C341.74,75.85,341.5,73.29,342.72,72.15Zm-40,76.24a4,4,0,0,1-1.43-2.63,4.86,4.86,0,0,1,0-1c.31-3.41,4-7.2,7.53-7.3a4.72,4.72,0,0,1,2.11.42c5.11,2.32-.15,11.65-5.37,11.61A4.41,4.41,0,0,1,302.7,148.39ZM319,156.83a7.37,7.37,0,0,1-1.32,1.62,5.84,5.84,0,0,1-2.68,1.43,4.28,4.28,0,0,1-1,.1,4.17,4.17,0,0,1-1-.13,5.13,5.13,0,0,1-2-1c-2.15-1.81-1.67-5,.06-7.19a7.45,7.45,0,0,1,.71-.77,5.39,5.39,0,0,1,3.7-1.53,5,5,0,0,1,2.14.54,4.62,4.62,0,0,1,1.3,1,4.26,4.26,0,0,1,.49.65,4,4,0,0,1,.53,1.46,5.08,5.08,0,0,1,0,1,5.86,5.86,0,0,1-.47,1.93A6.08,6.08,0,0,1,319,156.83Zm13.49-18.61a6,6,0,0,1-2.16,3.44,4.43,4.43,0,0,1-.46.29l-.23.13-.48.22-.24.08a5.87,5.87,0,0,1-1.73.3h-.3l-.51,0-.36,0-.48-.07-.66-.16a4.42,4.42,0,0,1-.48-.15l-.5-.17-.37-.16a5,5,0,0,1-.52-.25l-.31-.15-.77-.47-.13-.1c-.22-.15-.43-.31-.63-.47l-.23-.2-.49-.46-.2-.2c-.21-.23-.41-.46-.6-.71a8.41,8.41,0,0,1-.88-1.47c-.12-.27-.23-.53-.33-.8a6.94,6.94,0,0,1-.19-4.2h0a6.94,6.94,0,0,1,.31-.84,2.56,2.56,0,0,1,.11-.24c.09-.17.17-.34.27-.49l.15-.24.3-.4a1.71,1.71,0,0,1,.18-.2,3,3,0,0,1,.36-.35,1.07,1.07,0,0,1,.16-.14,3.27,3.27,0,0,1,.58-.39h0a4.22,4.22,0,0,1,.61-.28l.19-.07.48-.14.22,0a4.29,4.29,0,0,1,.5-.07l.21,0a4,4,0,0,1,.6,0h.12a7.62,7.62,0,0,1,1.54.22l.09,0,.69.21.12,0,.68.26.08,0A11.43,11.43,0,0,1,329,130.6C331.5,132.47,333.21,135.34,332.47,138.22Zm16.7-23.61c-2.76,3.16-7.74,1.86-11.07-1-2.6-2.28-4.19-5.54-2.92-8.43,1.71-3.91,7.68-3.08,10.55-1.15S352.07,111.28,349.17,114.61Zm-2.52-14.86a5,5,0,0,1-2-5.77c1-3.65,5.12-6.8,8.68-4.16a6.26,6.26,0,0,1,2.31,5.57A5.79,5.79,0,0,1,346.65,99.75Z"/><path class="cls-24" d="M300.12,61.05s0,0,0-.07a5,5,0,0,0,.77-4.4,5.6,5.6,0,0,0-6.57-3.92,6,6,0,0,0-2,.67c-2.31,1.1-4,3.82-3.12,6.42a5.93,5.93,0,0,0,10.89,1.3Z"/><path class="cls-24" d="M277.23,51.76c1.24-1.82.81-3.95,0-5.8a5.29,5.29,0,0,0-4.75-2.71,39.4,39.4,0,0,1-2.16.22,5.66,5.66,0,0,0-3.37,2.63c-1.21,2.4-.73,6.31,2.11,7.48l.72.3a5.89,5.89,0,0,0,4.12.51A6.19,6.19,0,0,0,277.23,51.76Z"/><path class="cls-24" d="M283.83,65a5.6,5.6,0,0,0-3.95-6.7l-1.5-.38a5.5,5.5,0,1,0-2.76,10.64l1.5.38A5.58,5.58,0,0,0,283.83,65Z"/><path class="cls-24" d="M294.88,41.27a4.39,4.39,0,0,0-5.47-2.71l-.41.14a4.32,4.32,0,0,0,2.76,8.18l.41-.14A4.36,4.36,0,0,0,294.88,41.27Z"/><path class="cls-25" d="M317.81,68.47a5.38,5.38,0,0,0-6.69-3.31l-.5.17a5.28,5.28,0,1,0,3.37,10l.5-.17A5.34,5.34,0,0,0,317.81,68.47Z"/><path class="cls-25" d="M271.07,79.38a5.37,5.37,0,0,0-6.69-3.32l-.5.17a5.28,5.28,0,0,0,3.37,10l.5-.17A5.34,5.34,0,0,0,271.07,79.38Z"/><path class="cls-24" d="M262.69,62.44a4.39,4.39,0,0,0-5.47-2.71l-.41.14a4.32,4.32,0,1,0,2.76,8.18l.4-.14A4.36,4.36,0,0,0,262.69,62.44Z"/><g id="_Group_" data-name="&lt;Group&gt;"><path id="_Path_6" data-name="&lt;Path&gt;" class="cls-26" d="M192,85.28C180.06,76.1,162.24,74,147.94,76.77,120.8,82.1,85.59,106.36,89.62,138c4.37,34.35,65.63,71.08,95.62,51.8,16.41-10.55,23.1-30.92,24.25-49.51S207.82,97.45,192,85.28Z"/><path id="_Path_7" data-name="&lt;Path&gt;" class="cls-27" d="M175.83,86.9c-33.56-12.26-76,16.11-76.45,46.51-.57,35.09,59.26,58.78,77.79,49.25C206.25,167.71,204.51,97.38,175.83,86.9Z"/><path class="cls-28" d="M187.36,139.51c1.6-6.07-19.67-16.21-19.67-16.21s18.57,1.77,20-2.84c1.53-4.82-27.35-14-27.35-14s18.67-.39,20.29-4.69-32.11-10.36-32.11-10.36,19.24-1.75,17.81-5.73c-1.08-3-19.8-5.56-36.56,4.05-3.69,2.11-8.49,5-9.48,5.75C115.47,99.33,100,116,103.78,119.85c2.62,2.65,9.92-2.18,14.2-5.44-4,9.25-9.16,23-6.12,24.87,4.65,2.88,16.47-14.46,16.47-14.46s-7,30.62-3,31.94c5.29,1.72,12.21-14.22,12.21-14.22s1.78,29.82,7.59,29.92c3.87.07,5.6-9.05,6.1-14.37,6.55,11.16,20.37,16.79,24.23,13.79,5-3.89,3.85-14.43.18-28.39C179.63,144.6,186.53,142.69,187.36,139.51Z"/><path id="_Path_8" data-name="&lt;Path&gt;" class="cls-29" d="M136.91,102.19c18.69-8.37,34.8,58,31.57,60C164.61,164.57,118.43,110.47,136.91,102.19Z"/><path id="_Path_9" data-name="&lt;Path&gt;" class="cls-30" d="M149.43,112.28s7.9,14.06,1.55,17.35-14.79-12.39-12.76-12.91c.86-.22,7.08,10.23,10.57,8.23C151.25,123.54,147.06,112.44,149.43,112.28Z"/><path id="_Path_10" data-name="&lt;Path&gt;" class="cls-31" d="M126.93,80.91s2.93-12.58,21.25-28.22c0,0,2.73,22.9-12,31,0,0,11.07.49,17.23,12.56,0,0-12.57,6.88-23.18-6.12,0,0-1.08,22.41-13.38,27.78,0,0-1.31-18.78,4.06-25.59,0,0-16.89,13.53-34.65-1.19,0,0,12.57-11,37.64-7.59,0,0-8.54-8.77-17-14.38l6.48-7.49S123.93,70.5,126.93,80.91Z"/></g><path class="cls-13" d="M99.19,162.48s45.66,17.54,106.4-2.07S179,202,177,201.77c-15.27-2.19-58.92-16-58.92-16Z"/><path class="cls-32" d="M370.2,154.24a36.61,36.61,0,0,0-14-25.73,43.92,43.92,0,0,0-29.54-9.3c-21.83,1.43-42.08,21.18-39.33,43.58a35.14,35.14,0,0,0,9,19.15c12,13.51,59.24,10.64,67.36-1.77A40.62,40.62,0,0,0,370.2,154.24Z"/><path class="cls-33" d="M351.26,132.86c-2.39-8.44-19.12-11.91-31.4-8.11-11.76,3.65-23.19,15.13-20.92,23,2.48,8.6,21.18,12.5,34.65,6.93C343.21,150.72,353.45,140.57,351.26,132.86Zm-24.5,9.54c-5.1,1.86-11.6-.16-12-2.71-.41-2.37,4.36-5.14,7.43-6.27,4.28-1.57,10.61-1.92,11.69.5S331.16,140.8,326.76,142.4Z"/><path class="cls-34" d="M323.38,136.07c1.85-.61,3.69-.09,4.09,1.15s-.77,2.74-2.63,3.35-3.69.09-4.1-1.16S321.52,136.67,323.38,136.07Z"/><path class="cls-35" d="M302.52,136.28c-2.57-1.88,7.36-9.71,9-7.51C313.39,131.2,305.05,138.13,302.52,136.28Z"/><path class="cls-35" d="M318.47,127.44a2.16,2.16,0,1,1-1.81-2.64A2.28,2.28,0,0,1,318.47,127.44Z"/><g class="cls-36"><path class="cls-37" d="M292.24,161c16.43,2.81,14.91,33.5-5.49,31.19L277,179l7.34-16.1Z"/><path class="cls-37" d="M279.91,180.73c17.11,3.41,13.91,28.81-1.65,32.15A15.35,15.35,0,0,1,266.5,211l-3.63-22.63Z"/><path class="cls-37" d="M267,199.76c2,3.12,4.35,6.67,5,10.38,2.49,15.07-23.06,20.6-26.78,7.05l4.48-19.85Z"/><path class="cls-37" d="M268.8,182.61c2.5,3.65,4.93,7.51,5.43,12,2.06,18.18-16.89,19.22-27.93,10.71l-3.43-16.09,11-11Z"/><path class="cls-38" d="M208.17,208.63c-6.51.5-17-3.53-20.38-7.52-5.34-6.21-4.8-17.38,2.85-22.28l21.9-2.8Z"/><path class="cls-38" d="M265.71,126.9c2-15.5-18.55-23.17-29.33-13l3.93,21.53Z"/><path class="cls-37" d="M244.9,196.57c3,3.54,6.37,7.5,7.48,12.11,1.9,7.8-3.4,15.09-11,17.07-8.89,2.32-14.93-4-19.37-10.85l8.51-18.78Z"/><path class="cls-38" d="M245.07,127.46c-.41-3.45-.84-7.36-2.68-10.38-8.34-13.66-31.92-5.36-28.26,10.88l14.81,14.75Z"/><path class="cls-37" d="M288.49,153.09c9.2-11.94-2.95-33.19-17.74-22.18L269,151.83Z"/><path class="cls-37" d="M282.28,170.55A14.44,14.44,0,0,0,294,167.43c10.13-8.91.57-24.86-11.88-21.7-7,1.77-12.25,9.28-10.14,16.44C273.4,166.93,277.62,169.81,282.28,170.55Z"/><path class="cls-38" d="M271.65,151.58c3.69-3.18,5.67-6.72,5.91-11.61.82-17.44-20.35-25-30-9.69l-.62,23.33Z"/><path class="cls-37" d="M231.75,199.31c2.35,4.49,1.6,10.22-1,14.56-5.18,8.61-18.3,9.2-25.34,2.47-8.44-8.05-6.26-21,2.65-25l18.81-4.55Z"/><path class="cls-38" d="M201.16,137.69c-12.24-4.91-22.78,11.7-17.88,22.2,1.39,3,4,4.9,6.93,6.28l15.39,1.52,3.78-19.24Z"/><path class="cls-38" d="M274.06,169.36c3.24-2.6,5.47-5.59,6.06-9.75,2.72-19.15-16.17-18.09-26.1-7.93l-2.26,21.11Z"/><path class="cls-38" d="M200.33,159.24c-6.67-4.45-18.21-1.57-21,8.85-2,7.58,2.63,15.76,9.48,18.58,3.86,1.61,12.58.54,15.33-5.57Z"/><path class="cls-38" d="M231.19,135.8c-1.2-15-21.54-16.12-29.46-6-6.68,8.53-2.38,19.4,6,23.63l20.18,0Z"/><path class="cls-37" d="M256.61,177.54c1,5.29,6,10.07,12.07,11.72,11.31,3.06,20.34-10.55,15.4-20.54C277.49,155.39,253.92,163.11,256.61,177.54Z"/><path class="cls-38" d="M249.75,146.06c2-4.11,3.71-8.7,3.17-13.36-1-8.89-9.48-12.61-17.65-10.4-8.59,2.33-10.64,10.41-10.73,18.36l11.89,10.68Z"/><path class="cls-38" d="M208.43,176.42a19.59,19.59,0,0,1-9.07-4.87c-10.23-10.3,2.39-27.34,15.27-22.29l12.1,14Z"/><path class="cls-38" d="M252.43,164.86c4.82-.78,8.41-6.18,9-9.57,2.81-16.53-22.28-24.12-28.39-9.07l.4,16.43Z"/><path class="cls-38" d="M250.7,185c.51,3.62,1.07,7.56-.18,11.09-2.56,7.23-8.55,9.57-15.9,9.72-8.85.19-16.38-8.13-13.53-15.56l8.32-14.6Z"/><path class="cls-38" d="M238.86,183.19c5.51,6.82,18.46,8.63,23.95.79,4.66-6.68,5-17.79-4.16-22.35-4.66-2.32-11.25-1.37-15.55,1.25Z"/><path class="cls-38" d="M236.12,160.4c4.28-4,5.21-9.73,2.67-14.44-5-9.33-16.67-9.44-22.95-3.74-10,9.09-3.5,20.95,6.1,21.51Z"/><path class="cls-38" d="M227.64,182.07c.34,4.68-2.28,9.16-6.47,11.85-7.78,5-20.22-.75-22.75-8.62-5.32-16.53,13-22.64,20.17-16.49Z"/><path class="cls-38" d="M239.35,156.86c-14-5.16-31.41,8.47-20.6,22.64,8.54,11.24,27.62,7.95,29.35-6.72C248.94,165.71,245.62,160,239.35,156.86Z"/><path class="cls-39" d="M227.09,140.31c-5.74-3.08-17.3,6.43-11.2,13.36,5.52,6.28,19.06-5.78,12.71-12.22A6.45,6.45,0,0,0,227.09,140.31Z"/><path class="cls-40" d="M244.4,153.49c4.18,4.5,12,2.08,12.07-4.37.08-5.55-6.4-9.34-11.42-8.19C239.36,142.24,241.36,150.23,244.4,153.49Z"/><path class="cls-39" d="M244.91,129.33c.63-2.69-1.31-5-3.5-5.82-6.18-2.45-15.66,4.77-10.59,10.18C234.45,137.55,243.69,134.65,244.91,129.33Z"/><path class="cls-40" d="M256.37,131.91c.57,9.68,16.3,10.77,14.61.73C269.71,125,255.77,121.66,256.37,131.91Z"/><path class="cls-40" d="M266.75,151.66c-.05,7.64,11.18,9.17,10.45,1.2C276.64,146.82,266.8,143.57,266.75,151.66Z"/><path class="cls-41" d="M255.24,168.09c-9.77-1.08-13.23,13.66-3,12.86C260.07,180.35,263.08,169,255.24,168.09Z"/><path class="cls-40" d="M277.08,174.09c-8.64-1-11.71,12.08-2.62,11.38C281.36,184.94,284,174.87,277.08,174.09Z"/><path class="cls-39" d="M258.29,118.91c1.55-6.57-13.64-11.36-14.14-2.24C243.82,122.83,256.8,125.24,258.29,118.91Z"/><path class="cls-42" d="M258,193c-3.25,1.91-4.75,5.57-3.3,8.05s5.38,2.95,8.63,1,4.75-5.56,3.3-8S261.27,191.13,258,193Z"/><path class="cls-40" d="M193.76,171.88c-.82-3.81-4.17-6.41-7.37-5.72s-5.19,4.44-4.38,8.24,4.18,6.41,7.38,5.72S194.58,175.69,193.76,171.88Z"/><path class="cls-42" d="M233.85,182.26c-4.17,1.11-6.78,5.28-5.74,9.16s5.38,6.2,9.55,5.09,6.77-5.28,5.73-9.17S238,181.14,233.85,182.26Z"/><path class="cls-42" d="M277.66,195.39c-1.6,2.49-1.23,5.67.81,7s5.09.33,6.69-2.16,1.23-5.67-.82-7S279.26,192.9,277.66,195.39Z"/><path class="cls-42" d="M204.94,204.69c1.64,3.52,7.8,4.89,10.2,1.65s-.61-6.89-4.55-7.59c-4.8-.85-7.12,3.67-5.14,6.67C205.28,205.17,205.12,204.93,204.94,204.69Z"/><path class="cls-40" d="M184.32,192.44a15.19,15.19,0,0,0,3.47,8.67,20.51,20.51,0,0,0,7,4.61c1.75-2.43,2.34-5.63.74-9.42C193.35,191.11,188.63,190.62,184.32,192.44Z"/><path class="cls-42" d="M299.42,174.1a4.38,4.38,0,0,0-2.58-2.95c-6.78-2.77-8.69,11.25-2.15,11C298.38,182.07,300.4,177.43,299.42,174.1Z"/><path class="cls-40" d="M285.91,145.35a12.31,12.31,0,0,0-1.47,3.63c-1.06,5.1,1.79,9.84,7,10.52a9.74,9.74,0,0,0,6.77-2A13.28,13.28,0,0,0,285.91,145.35Z"/><path class="cls-40" d="M279.64,127.87a10.82,10.82,0,0,0,.95,7.95c2.18,4.07,7,6.61,10.77,4.27C290.16,133.73,285.62,128.26,279.64,127.87Z"/><path class="cls-39" d="M233,161.6c-4.19-5.16-15,.46-14.26,6.85C220.21,180.92,241,171.42,233,161.6Z"/><path class="cls-40" d="M205.37,170.12c-4.87,1.54-7.63,7.16-4.75,12.82,2.8,5.5,10.38,3.86,12.65-1.09S211.62,168.14,205.37,170.12Z"/><path class="cls-39" d="M223.9,113.74c-3.18,1.33-5.12,4.15-4.26,6.2s4.23,2.63,7.41,1.3,5.12-4.16,4.26-6.2S227.08,112.4,223.9,113.74Z"/><path class="cls-39" d="M206.83,130.06c-3.8,2.33-5.68,6.38-4.13,8.9s6,2.67,9.81.33,5.67-6.38,4.13-8.9S210.63,127.72,206.83,130.06Z"/><path class="cls-39" d="M208.82,152.28l-.06,0c-3.63-1.6-6.65-.79-8.87,2.21-3.42,3.93-3.61,11,3,11.82S215.59,155.42,208.82,152.28Z"/><path class="cls-43" d="M195.39,139.7h0a5.7,5.7,0,0,0-4.07,2.28,3.66,3.66,0,0,0,.28,4.84,4.34,4.34,0,0,0,4.13.77,5.14,5.14,0,0,0,3.68-4.09v-.06A3.5,3.5,0,0,0,195.39,139.7Z"/><path class="cls-41" d="M255.64,160.65c8.17-5.89,5.79-20.52-6-22.08,2-6.27-.63-13.82-5.73-18-2.71-2.22-11-4.75-17.56,6a18,18,0,0,0-15.15.58A13.37,13.37,0,0,0,204,142.66c-7.53-1-12.35,5.31-12.92,10.14-.51,4.31,1.14,9.81,4.58,11.12-4.53,1.27-10.14,8.34-7.2,14.06a11.52,11.52,0,0,0,14.07,5.4c1.63,10.14,14.47,12.37,19.87,4.82,0,3.68,1.44,8.5,3.92,10.8,6.62,6.13,18.95,1.49,21.34-4.91,1.48-3.92,0-7.85-1.52-11.55,5.45,3,12.36,1.19,15.1-3.09C264.44,174.38,263.36,164.44,255.64,160.65Z"/><path class="cls-44" d="M231.3,123.9c-5,0-5,7.78,0,7.78S236.32,123.9,231.3,123.9Z"/><path class="cls-44" d="M215.75,143.27c-5,0-5,7.78,0,7.78S220.77,143.27,215.75,143.27Z"/><path class="cls-44" d="M211.66,126.18c-4.18,0-4.18,6.49,0,6.49S215.84,126.18,211.66,126.18Z"/><path class="cls-44" d="M201.29,150.19c-4.18,0-4.18,6.49,0,6.49S205.47,150.19,201.29,150.19Z"/><path class="cls-44" d="M241.67,139.55c-4.18,0-4.18,6.49,0,6.49S245.85,139.55,241.67,139.55Z"/><path class="cls-44" d="M229,156c-4.18,0-4.18,6.49,0,6.49S233.19,156,229,156Z"/></g><path id="_Path_11" data-name="&lt;Path&gt;" class="cls-5" d="M401.33,234.49a3,3,0,0,0-2.69-5.44,3.29,3.29,0,0,0-1.5,1.73c-1.91,1.65-.19,5.1,2.3,4.47q.72-.19,1.41-.45C401.12,234.71,402.31,234,401.33,234.49Z"/><path id="_Path_12" data-name="&lt;Path&gt;" class="cls-5" d="M398.24,246.79a3.92,3.92,0,1,0,2.46,5A4,4,0,0,0,398.24,246.79Z"/><path id="_Path_13" data-name="&lt;Path&gt;" class="cls-5" d="M382.72,228.71c-6.55-2.22-10,7.94-3.43,10.16S389.28,230.93,382.72,228.71Z"/><path id="_Path_14" data-name="&lt;Path&gt;" class="cls-5" d="M343.3,407.16a3.8,3.8,0,0,0-6,4.61,4.16,4.16,0,0,0,2.48,1.43c2.49,1.94,6.31-1,4.93-3.91-.27-.56-.57-1.09-.89-1.62C343.61,407.37,342.43,406.08,343.3,407.16Z"/><path id="_Path_15" data-name="&lt;Path&gt;" class="cls-5" d="M360,389.11a4.9,4.9,0,1,0,5.5-4.22A4.94,4.94,0,0,0,360,389.11Z"/><path id="_Path_16" data-name="&lt;Path&gt;" class="cls-5" d="M345.41,429.22c-1.14,8.57,12.15,10.34,13.29,1.77S346.55,420.65,345.41,429.22Z"/><path id="_Path_17" data-name="&lt;Path&gt;" class="cls-5" d="M377.41,298.57c-1.14,8.56,12.15,10.33,13.29,1.76S378.55,290,377.41,298.57Z"/><path class="cls-45" d="M248.31,225.5c-75.09,0-138.62-17.37-178-40.8,35.76,26.59,113,46.43,180.69,44.69a389.7,389.7,0,0,0,92-14.1C315,220.56,281.15,225.5,248.31,225.5Z"/><path class="cls-46" d="M234.27,453.17c-80.19,9.11-128.49-41-143.85-59.66,15.28,39.54,29.48,63.68,31.56,67.13,6.56,10.87,54,29.79,128.08,29,64.85-.71,115.07-20.16,123.26-30.24,4.82-5.93,26.25-56.05,43.09-128.16C407.65,351.54,331.78,443.15,234.27,453.17Z"/><path class="cls-47" d="M412.47,407.32c20.1,12.64,37.08,32.24,31.41,55.91C434.65,501.77,389.41,524,357,509.59c-44-19.52-42.1-80.4-11-105.06C364.33,389.92,393.1,395.15,412.47,407.32Z"/><path class="cls-48" d="M439.22,463c-18.3,18.31-45.49,29.57-71.38,29.57A96.87,96.87,0,0,1,330.38,485,54.63,54.63,0,0,0,357,509.59c32.44,14.39,77.68-7.82,86.91-46.36a39.2,39.2,0,0,0,1-6A78.67,78.67,0,0,1,439.22,463Z"/><path class="cls-49" d="M380.64,461c23.82-2.47,38.32-24.34,37.67-39.88-.21-5.07-2.74-10-6.8-14.4C392.15,395,364,390.16,345.94,404.53c-7.87,6.24-13.83,15.24-17.81,25.57C332.61,446.41,353.89,463.8,380.64,461Z"/><path class="cls-50" d="M395.38,412.18c-6.89-12.14-25.46-14.35-36.48-5.76-8.3,6.47-12.23,19-7.57,28.4,6.42,12.95,27.13,16,38.44,6.16C397.48,434.25,400.72,421.6,395.38,412.18Z"/><path class="cls-51" d="M434.75,426.83c-5.88-7.57-13.75-14.13-22.2-19.46l-22.21,5s-16.38,12.94,25.2,6C415.54,418.37,424.31,434.44,434.75,426.83Z"/><g id="_Group_2" data-name="&lt;Group&gt;"><path class="cls-52" d="M423.1,414.85a69.47,69.47,0,0,0,17.83-3.93,35.66,35.66,0,0,0-21.12-6.77,4.89,4.89,0,0,1-2.84-3,19.21,19.21,0,0,0-5-15.47,24,24,0,0,0-3.41,13s-1.9-8-14-12.15c1.68,9.69,6.2,13.68,6.2,13.68a41.27,41.27,0,0,0-19.33,10.1c20.37,8.1,30.74,2.51,30.74,2.51a23.3,23.3,0,0,0,10.35,19.48C426,426,423.1,414.85,423.1,414.85Z"/></g><g id="_Group_3" data-name="&lt;Group&gt;"><path id="_Path_18" data-name="&lt;Path&gt;" class="cls-53" d="M358.7,481c3.8.94,4.8-8.26,2.74-8.9C359.7,471.57,353.65,479.75,358.7,481Z"/></g><g id="_Group_4" data-name="&lt;Group&gt;"><path id="_Path_19" data-name="&lt;Path&gt;" class="cls-54" d="M370.67,450.78c3.67,1.43,5.66-8.14,3.77-8.62C372.3,441.61,365.57,448.79,370.67,450.78Z"/></g><g id="_Group_5" data-name="&lt;Group&gt;"><path id="_Path_20" data-name="&lt;Path&gt;" class="cls-54" d="M344.64,427.46c3.11,2.35,7.85-5.81,6.23-7.2C349.49,419.08,340.52,424.35,344.64,427.46Z"/></g><g id="_Group_6" data-name="&lt;Group&gt;"><path id="_Path_21" data-name="&lt;Path&gt;" class="cls-54" d="M369,425.48c3.1,2.35,7.85-5.81,6.22-7.2C373.82,417.1,364.85,422.37,369,425.48Z"/></g><g id="_Group_7" data-name="&lt;Group&gt;"><path id="_Path_22" data-name="&lt;Path&gt;" class="cls-55" d="M420.44,447.78c3.87,1.36,5.39-9.11,3.25-9.85C421.89,437.3,416,446.22,420.44,447.78Z"/></g><g id="_Group_8" data-name="&lt;Group&gt;"><path id="_Path_23" data-name="&lt;Path&gt;" class="cls-54" d="M395.75,432.7c3.95,2.93,7.39-6.81,5.48-8S391.83,429.78,395.75,432.7Z"/></g><g id="_Group_9" data-name="&lt;Group&gt;"><path id="_Path_24" data-name="&lt;Path&gt;" class="cls-55" d="M385.6,479.47c3.64,1.45,5.89-7.52,3.93-8.44C387.89,470.25,380.77,477.54,385.6,479.47Z"/></g><g id="_Group_10" data-name="&lt;Group&gt;"><path id="_Path_25" data-name="&lt;Path&gt;" class="cls-55" d="M396.18,457c3.76,2,6.32-6.7,4.63-7.55C398.82,448.48,392,454.81,396.18,457Z"/></g><g id="_Group_11" data-name="&lt;Group&gt;"><path id="_Path_26" data-name="&lt;Path&gt;" class="cls-55" d="M409.83,474.74c3.91,1.71,5.78-7.18,4-7.9C411.79,466,405.49,472.84,409.83,474.74Z"/></g><g id="_Group_12" data-name="&lt;Group&gt;"><path id="_Path_27" data-name="&lt;Path&gt;" class="cls-53" d="M389,501.68c3.91,1.7,5.78-7.18,4-7.9C391,492.93,384.65,499.78,389,501.68Z"/></g><g id="_Group_13" data-name="&lt;Group&gt;"><path id="_Path_28" data-name="&lt;Path&gt;" class="cls-55" d="M429.74,464.83c4.25.45,3.35-8.59,1.47-8.74C429,455.9,425,464.32,429.74,464.83Z"/></g><g id="_Group_14" data-name="&lt;Group&gt;"><path id="_Path_29" data-name="&lt;Path&gt;" class="cls-54" d="M340.65,465.21c4.07,1.28,5-7.76,3.17-8.28C341.67,456.3,336.13,463.78,340.65,465.21Z"/></g><g id="_Group_15" data-name="&lt;Group&gt;"><path id="_Path_30" data-name="&lt;Path&gt;" class="cls-54" d="M347.1,445.46c4.11,2,5.7-7.57,4.1-8.28C349.85,436.58,342.8,443.43,347.1,445.46Z"/></g><path id="_Path_31" data-name="&lt;Path&gt;" class="cls-56" d="M414.52,401.63S413.28,404,412.3,406s1.86,4.11,2.84,2.48,2.22-3.81,2.22-3.81,14.78-28.52,30.3-24.22c11.79,3.27,10.82,13.59,9.45,21.72l8.61-1.41s4.39-19.84-10.79-26.46C443.68,369.34,428,371.62,414.52,401.63Z"/></g></g></svg>